<?xml version="1.0" encoding="UTF-8"?>
<svg id="Layer_1" data-name="Layer 1" xmlns="http://www.w3.org/2000/svg" viewBox="0 0 85.65 132.11"><defs><style>.cls-1{fill:#f58767;}</style></defs><title>icon</title><path class="cls-1" d="M84.22,101.42a19.31,19.31,0,0,0-4.06-6.8,17.82,17.82,0,0,0-6.35-4.3,24,24,0,0,0-8.44-1.51,22.25,22.25,0,0,0-9.51,2.28C52.58,92.72,50,95.23,40,108.17s-11.47,18.1-20.12,18.1c-4.06,0-7.43-1.76-9-3.77-2.65-3.34-3.33-7.51-3.33-12,0-6.41,1.64-9.69,3.37-12,1.92-2.59,5.31-3.83,9.31-3.83a10.83,10.83,0,0,1,8.64,3.92,15.5,15.5,0,0,1,2.54,5.23l6.17-4.23a19,19,0,0,0-3.07-4.69,16.94,16.94,0,0,0-6.09-4.3,21.31,21.31,0,0,0-8.19-1.76,22,22,0,0,0-8.32,1.52,18.07,18.07,0,0,0-6.39,4.3,19.39,19.39,0,0,0-4.1,6.8,28.62,28.62,0,0,0,0,18,19.66,19.66,0,0,0,4.1,6.84,17.8,17.8,0,0,0,6.39,4.35,20.68,20.68,0,0,0,8.32,1.51c3.42,0,13-.42,23.25-16C55.26,98.22,59,94.72,65.42,94.72c5.28,0,8.2,2.08,9.83,4.46s2.7,7.23,2.7,11.76-.87,8.77-3.29,11.53-4.64,3.74-9.13,3.74a11,11,0,0,1-7.8-2.74c-2.55-2.16-3.07-4.55-3.86-7.18l-5.95,5a21.47,21.47,0,0,0,3.24,4.88,19.68,19.68,0,0,0,14.35,5.92,21.83,21.83,0,0,0,8.3-1.51,17.56,17.56,0,0,0,6.35-4.35,19.58,19.58,0,0,0,4.06-6.84,29,29,0,0,0,0-18"/><path class="cls-1" d="M55.82,36c-.69.51-1.36,1-2,1.58h0l-.17.15h0l-.06.06h0a37.2,37.2,0,0,0-10.82,15.8,37.2,37.2,0,0,0-10.82-15.8h0l-.06-.06h0l-.17-.15h0c-.64-.55-1.32-1.07-2-1.58,0-.33,0-.65,0-1,0-1.06,0-2.12.13-3.16h0a36,36,0,0,1,.94-5.71,36.5,36.5,0,0,1,11.71-19l.29-.28.29.28a36.5,36.5,0,0,1,11.71,19,37.18,37.18,0,0,1,1,5.71h0c.08,1,.13,2.1.13,3.16,0,.33,0,.65,0,1m-12.92,27,.09-.34a36.71,36.71,0,0,1,9.68-17.09c.66-.66,1.36-1.31,2.09-1.94l.05,0A36.8,36.8,0,0,1,42.9,63.07M30.69,43.66l0,0c.73.63,1.43,1.28,2.09,1.94a36.71,36.71,0,0,1,9.68,17.09l.09.34A36.8,36.8,0,0,1,30.69,43.66m52-8.58h0V34.8h0a37,37,0,0,0-.94-5.62l0-.1h-.1A37.26,37.26,0,0,0,75,29h-.29a37.59,37.59,0,0,0-14,4,37.63,37.63,0,0,0-.11-4.38h0v-.08h0l0-.22h0a36.57,36.57,0,0,0-.9-5.41h0l0-.1h0l0-.19h0A37.39,37.39,0,0,0,47.84,3.71h0l-.14-.12h0l-.08-.07h0A36.7,36.7,0,0,0,42.82,0l-.07,0-.07,0a36.7,36.7,0,0,0-4.8,3.48h0l-.08.07h0l-.14.12h0A37.39,37.39,0,0,0,26,22.65h0l0,.19h0l0,.1h0a36.57,36.57,0,0,0-.9,5.41h0l0,.22h0v.08h0A37.63,37.63,0,0,0,24.85,33a37.59,37.59,0,0,0-14-4h-.28a37.36,37.36,0,0,0-6.61.09h-.1l0,.1a37,37,0,0,0-.94,5.62h0v.28h0A37.07,37.07,0,0,0,35.91,75V73.24A36.78,36.78,0,0,1,9.82,35a36.8,36.8,0,0,1,16,5.14,37.07,37.07,0,0,0,16.68,23.2l.28.14.28-.14a37.07,37.07,0,0,0,16.68-23.2,36.8,36.8,0,0,1,16-5.14A36.78,36.78,0,0,1,49.59,73.24V75A37.07,37.07,0,0,0,82.66,35.08"/></svg>